HIERARCHY
ROOT Hips
{
	OFFSET 0.00000 0.00000 0.00000
	CHANNELS 6 Xposition Yposition Zposition Zrotation Yrotation Xrotation 
	JOINT LHipJoint
	{
		OFFSET 0 0 0
		CHANNELS 3 Zrotation Yrotation Xrotation
		JOINT LeftUpLeg
		{
			OFFSET 1.48831 -1.59570 0.95625
			CHANNELS 3 Zrotation Yrotation Xrotation
			JOINT LeftLeg
			{
				OFFSET 2.20856 -6.06797 0.00000
				CHANNELS 3 Zrotation Yrotation Xrotation
				JOINT LeftFoot
				{
					OFFSET 2.62924 -7.22379 0.00000
					CHANNELS 3 Zrotation Yrotation Xrotation
					JOINT LeftToeBase
					{
						OFFSET 0.16802 -0.46163 2.41673
						CHANNELS 3 Zrotation Yrotation Xrotation
						End Site
						{
							OFFSET 0.00000 -0.00000 1.23760
						}
					}
				}
			}
		}
	}
	JOINT RHipJoint
	{
		OFFSET 0 0 0
		CHANNELS 3 Zrotation Yrotation Xrotation
		JOINT RightUpLeg
		{
			OFFSET -1.56796 -1.59570 0.95625
			CHANNELS 3 Zrotation Yrotation Xrotation
			JOINT RightLeg
			{
				OFFSET -2.29239 -6.29829 0.00000
				CHANNELS 3 Zrotation Yrotation Xrotation
				JOINT RightFoot
				{
					OFFSET -2.66963 -7.33475 0.00000
					CHANNELS 3 Zrotation Yrotation Xrotation
					JOINT RightToeBase
					{
						OFFSET -0.18185 -0.49964 2.34359
						CHANNELS 3 Zrotation Yrotation Xrotation
						End Site
						{
							OFFSET -0.00000 -0.00000 1.20477
						}
					}
				}
			}
		}
	}
	JOINT LowerBack
	{
		OFFSET 0 0 0
		CHANNELS 3 Zrotation Yrotation Xrotation
		JOINT Spine
		{
			OFFSET 0.03505 2.15832 -0.34324
			CHANNELS 3 Zrotation Yrotation Xrotation
			JOINT Spine1
			{
				OFFSET -0.01089 2.17963 0.04689
				CHANNELS 3 Zrotation Yrotation Xrotation
				JOINT Neck
				{
					OFFSET 0 0 0
					CHANNELS 3 Zrotation Yrotation Xrotation
					JOINT Neck1
					{
						OFFSET 0.04686 1.69404 0.22159
						CHANNELS 3 Zrotation Yrotation Xrotation
						JOINT Head
						{
							OFFSET 0.00265 1.69305 -0.01513
							CHANNELS 3 Zrotation Yrotation Xrotation
							End Site
							{
								OFFSET -0.00415 1.80215 -0.03034
							}
						}
					}
				}
				JOINT LeftShoulder
				{
					OFFSET 0 0 0
					CHANNELS 3 Zrotation Yrotation Xrotation
					JOINT LeftArm
					{
						OFFSET 3.67184 1.11724 -0.19002
						CHANNELS 3 Zrotation Yrotation Xrotation
						JOINT LeftForeArm
						{
							OFFSET 5.17714 -0.00000 -0.00000
							CHANNELS 3 Zrotation Yrotation Xrotation
							JOINT LeftHand
							{
								OFFSET 3.43679 -0.00000 -0.00000
								CHANNELS 3 Zrotation Yrotation Xrotation
								JOINT LeftFingerBase
								{
									OFFSET 0 0 0
									CHANNELS 3 Zrotation Yrotation Xrotation
									JOINT LeftHandIndex1
									{
										OFFSET 0.57312 -0.00000 -0.00000
										CHANNELS 3 Zrotation Yrotation Xrotation
										End Site
										{
											OFFSET 0.46206 -0.00000 -0.00000
										}
									}
								}
								JOINT LThumb
								{
									OFFSET 0 0 0
									CHANNELS 3 Zrotation Yrotation Xrotation
									End Site
									{
										OFFSET 0.46912 -0.00000 0.46912
									}
								}
							}
						}
					}
				}
				JOINT RightShoulder
				{
					OFFSET 0 0 0
					CHANNELS 3 Zrotation Yrotation Xrotation
					JOINT RightArm
					{
						OFFSET -3.59596 0.95831 -0.26050
						CHANNELS 3 Zrotation Yrotation Xrotation
						JOINT RightForeArm
						{
							OFFSET -5.23908 -0.00000 -0.00000
							CHANNELS 3 Zrotation Yrotation Xrotation
							JOINT RightHand
							{
								OFFSET -3.46485 -0.00000 -0.00000
								CHANNELS 3 Zrotation Yrotation Xrotation
								JOINT RightFingerBase
								{
									OFFSET 0 0 0
									CHANNELS 3 Zrotation Yrotation Xrotation
									JOINT RightHandIndex1
									{
										OFFSET -0.60875 -0.00000 -0.00000
										CHANNELS 3 Zrotation Yrotation Xrotation
										End Site
										{
											OFFSET -0.49079 -0.00000 -0.00000
										}
									}
								}
								JOINT RThumb
								{
									OFFSET 0 0 0
									CHANNELS 3 Zrotation Yrotation Xrotation
									End Site
									{
										OFFSET -0.49829 -0.00000 0.49829
									}
								}
							}
						}
					}
				}
			}
		}
	}
}
MOTION
Frames: 13
Frame Time: .0083333
-0.6007 16.3474 -22.8568 -174.6020 -43.6075 174.5060 0.0000 0.0000 0.0000 -13.5273 6.4346 -3.8169 1.7362 8.2935 23.6093 1.1355 4.0689 -21.9778 0.1670 -2.6325 -7.2573 0.0000 0.0000 0.0000 22.0520 12.7197 -5.2564 -3.4094 -11.3300 33.4012 -1.4289 0.7139 -22.3904 -0.0009 -0.1906 0.5237 4.3017 -1.4544 -1.6242 2.0329 -2.3431 3.8502 -0.4414 -1.1009 4.8155 -3.5179 -5.8244 -6.4532 4.7996 -9.5486 20.8943 1.2661 -4.7364 7.9024 -0.0000 0.0000 0.0000 -89.7352 3.9196 16.3500 17.0320 -26.8999 -4.1018 -0.0000 0.0000 -18.3755 16.9726 10.6421 3.2260 -7.1250 0.0000 -0.0000 -8.9348 40.9318 0.9045 -0.0000 0.0000 0.0000 66.5188 7.0545 46.6686 -70.7264 58.5488 -43.3899 0.0000 -0.0000 -29.9193 -41.9949 -7.5676 6.7613 7.1250 -0.0000 -0.0000 -13.2792 -39.7679 -1.7482
-0.6228 16.3461 -22.8275 -174.6080 -43.2317 174.5360 0.0000 0.0000 0.0000 -13.6622 6.5829 -3.8435 1.7397 8.3015 23.6336 1.1472 4.2193 -22.1617 0.1614 -2.5886 -7.1355 0.0000 0.0000 0.0000 21.9376 12.9508 -5.3253 -3.4225 -11.3495 33.4679 -1.4133 0.7852 -22.2444 -0.0006 -0.1615 0.4437 4.2127 -1.4341 -1.6284 1.9829 -2.3085 3.8530 -0.4418 -1.0850 4.8227 -3.4647 -5.7194 -6.5451 4.7594 -9.4275 21.0899 1.2498 -4.6792 7.9737 0.0000 0.0000 0.0000 -89.6601 3.8383 16.4120 17.0510 -26.9250 -4.1104 -0.0000 0.0000 -18.3723 16.9883 10.6239 3.2237 -7.1250 0.0000 -0.0000 -8.9177 40.9145 0.9066 0.0000 0.0000 0.0000 66.0334 7.1118 47.4711 -72.1727 58.7644 -44.6252 0.0000 -0.0000 -30.1225 -41.6572 -7.7001 6.7975 7.1250 -0.0000 -0.0000 -12.9983 -39.9032 -1.6655
-0.6444 16.3446 -22.7980 -174.5880 -42.8623 174.5530 0.0000 0.0000 0.0000 -13.7721 6.7370 -3.8963 1.7460 8.3157 23.6772 1.1592 4.3433 -22.3336 0.1563 -2.5471 -7.0203 0.0000 0.0000 0.0000 21.8422 13.1807 -5.4020 -3.4351 -11.3682 33.5319 -1.3971 0.8562 -22.0937 -0.0004 -0.1351 0.3711 4.1418 -1.4141 -1.6381 1.9383 -2.2761 3.8580 -0.4470 -1.0697 4.8350 -3.4106 -5.6156 -6.6357 4.7261 -9.3078 21.2739 1.2357 -4.6220 8.0417 0.0000 -0.0000 0.0000 -89.5828 3.7489 16.4699 17.0657 -26.9442 -4.1170 -0.0000 0.0000 -18.3551 17.0031 10.5870 3.2156 -7.1250 0.0000 -0.0000 -8.8978 40.8779 0.9126 0.0000 -0.0000 0.0000 65.5513 7.1858 48.2652 -73.6655 58.9674 -45.9030 0.0000 -0.0000 -30.3729 -41.3888 -7.8659 6.8770 7.1250 -0.0000 -0.0000 -12.7825 -40.0882 -1.5774
-0.6650 16.3430 -22.7685 -174.5430 -42.4786 174.5590 0.0000 0.0000 0.0000 -13.8526 6.9149 -3.9778 1.7547 8.3352 23.7370 1.1718 4.4470 -22.4981 0.1524 -2.5156 -6.9328 0.0000 0.0000 0.0000 21.7699 13.4217 -5.4879 -3.4474 -11.3863 33.5941 -1.3800 0.9283 -21.9338 -0.0003 -0.1092 0.3001 4.0855 -1.3860 -1.6509 1.9002 -2.2341 3.8619 -0.4532 -1.0493 4.8480 -3.3557 -5.5132 -6.7101 4.7034 -9.1912 21.4394 1.2256 -4.5658 8.1014 0.0000 -0.0000 0.0000 -89.4992 3.6585 16.5459 17.0797 -26.9628 -4.1234 -0.0000 0.0000 -18.3589 17.0370 10.5600 3.2143 -7.1250 0.0000 -0.0000 -8.8631 40.8532 0.9145 0.0000 -0.0000 0.0000 65.0771 7.2627 49.0461 -75.2447 59.1611 -47.2576 0.0000 -0.0000 -30.6800 -41.1625 -8.0652 6.9931 7.1250 -0.0000 -0.0000 -12.6076 -40.3194 -1.4818
-0.6851 16.3414 -22.7386 -174.4710 -42.0997 174.5490 0.0000 0.0000 0.0000 -13.9088 7.0954 -4.0769 1.7656 8.3597 23.8121 1.1844 4.5333 -22.6538 0.1489 -2.4867 -6.8528 0.0000 0.0000 0.0000 21.7178 13.6575 -5.5789 -3.4591 -11.4035 33.6532 -1.3619 0.9990 -21.7665 -0.0002 -0.0868 0.2385 4.0534 -1.3557 -1.6634 1.8651 -2.1907 3.8669 -0.4696 -1.0275 4.8615 -3.2979 -5.4138 -6.7739 4.6874 -9.0794 21.5905 1.2174 -4.5112 8.1550 0.0000 0.0000 0.0000 -89.4091 3.5624 16.6017 17.0957 -26.9837 -4.1307 -0.0000 0.0000 -18.3747 16.9603 10.5906 3.2081 -7.1250 0.0000 -0.0000 -8.9358 40.8778 0.9166 0.0000 0.0000 0.0000 64.6139 7.3397 49.8030 -76.9070 59.3422 -48.6862 0.0000 -0.0000 -31.0274 -41.1383 -8.3173 7.2018 7.1250 -0.0000 -0.0000 -12.6197 -40.6399 -1.3817
-0.7052 16.3397 -22.7084 -174.4160 -41.7360 174.5400 0.0000 0.0000 0.0000 -13.9790 7.2725 -4.1678 1.7765 8.3841 23.8870 1.1973 4.6102 -22.8050 0.1450 -2.4541 -6.7624 0.0000 0.0000 0.0000 21.6478 13.8687 -5.6706 -3.4717 -11.4221 33.7169 -1.3436 1.0806 -21.5932 -0.0001 -0.0664 0.1825 4.0178 -1.3274 -1.6716 1.8222 -2.1495 3.8776 -0.4922 -1.0066 4.8781 -3.2331 -5.3152 -6.8330 4.6737 -8.9693 21.7329 1.2090 -4.4568 8.2048 -0.0000 0.0000 0.0000 -89.3067 3.4534 16.6246 17.1170 -27.0118 -4.1403 -0.0000 0.0000 -18.4831 16.7080 10.7161 3.1946 -7.1250 0.0000 -0.0000 -9.1800 40.9842 0.9179 -0.0000 0.0000 0.0000 64.1652 7.4296 50.5360 -78.6229 59.5052 -50.1635 0.0000 -0.0000 -31.4123 -41.2546 -8.6181 7.4877 7.1250 -0.0000 -0.0000 -12.7653 -41.0388 -1.2704
-0.7253 16.3376 -22.6781 -174.3610 -41.3677 174.5160 0.0000 0.0000 0.0000 -14.0468 7.4602 -4.2384 1.7859 8.4052 23.9516 1.2099 4.6880 -22.9541 0.1410 -2.4198 -6.6674 0.0000 0.0000 0.0000 21.5793 14.0670 -5.7565 -3.4859 -11.4429 33.7885 -1.3245 1.1665 -21.4116 -0.0000 -0.0373 0.1026 3.9885 -1.2989 -1.6695 1.7782 -2.1081 3.8946 -0.5192 -0.9856 4.8954 -3.1640 -5.2146 -6.8920 4.6586 -8.8564 21.8723 1.1998 -4.4009 8.2535 -0.0000 -0.0000 0.0000 -89.2039 3.3415 16.5927 17.1538 -27.0601 -4.1571 -0.0000 0.0000 -18.6953 16.2935 10.9557 3.1796 -7.1250 0.0000 -0.0000 -9.5891 41.1919 0.9100 -0.0000 -0.0000 0.0000 63.7306 7.5380 51.2509 -80.3713 59.6468 -51.6712 0.0000 -0.0000 -31.8196 -41.5213 -8.9579 7.8495 7.1250 -0.0000 -0.0000 -13.0545 -41.5071 -1.1465
-0.7458 16.3354 -22.6476 -174.3560 -41.0264 174.5140 0.0000 0.0000 0.0000 -14.1619 7.6318 -4.2840 1.7929 8.4206 23.9991 1.2223 4.7659 -23.1012 0.1360 -2.3770 -6.5487 0.0000 0.0000 0.0000 21.4597 14.2239 -5.8497 -3.5024 -11.4671 33.8718 -1.3054 1.2683 -21.2249 -0.0000 -0.0031 0.0085 3.9301 -1.2803 -1.6603 1.7212 -2.0777 3.9151 -0.5439 -0.9706 4.9122 -3.0945 -5.1120 -6.9517 4.6427 -8.7411 22.0143 1.1906 -4.3440 8.3031 -0.0000 0.0000 0.0000 -89.1023 3.2285 16.5039 17.2037 -27.1255 -4.1798 -0.0000 0.0000 -18.9814 15.7318 11.2952 3.1579 -7.1250 0.0000 -0.0000 -10.1503 41.4864 0.8899 -0.0000 0.0000 0.0000 63.3122 7.6689 51.9443 -82.1194 59.7640 -53.1806 0.0000 -0.0000 -32.2252 -41.8342 -9.3105 8.2406 7.1250 -0.0000 -0.0000 -13.3915 -42.0002 -1.0110
-0.7664 16.3331 -22.6173 -174.3820 -40.6876 174.5210 0.0000 0.0000 0.0000 -14.3031 7.8120 -4.3146 1.7985 8.4332 24.0377 1.2352 4.8395 -23.2499 0.1303 -2.3272 -6.4107 0.0000 0.0000 0.0000 21.3117 14.3609 -5.9430 -3.5205 -11.4934 33.9625 -1.2861 1.3811 -21.0335 -0.0000 0.0389 -0.1068 3.8510 -1.2644 -1.6452 1.6571 -2.0493 3.9389 -0.5645 -0.9572 4.9293 -3.0205 -5.0052 -7.0142 4.6240 -8.6204 22.1593 1.1801 -4.2845 8.3540 0.0000 0.0000 0.0000 -89.0014 3.1182 16.3788 17.2623 -27.2023 -4.2066 -0.0000 0.0000 -19.3068 15.1050 11.6821 3.1283 -7.1250 0.0000 -0.0000 -10.7831 41.8200 0.8569 0.0000 0.0000 0.0000 62.9120 7.8237 52.6138 -83.8506 59.8566 -54.6770 0.0000 -0.0000 -32.6193 -42.0684 -9.6753 8.6254 7.1250 -0.0000 -0.0000 -13.6616 -42.5011 -0.8598
-0.7868 16.3310 -22.5867 -174.4090 -40.3618 174.5330 0.0000 0.0000 0.0000 -14.4466 7.9865 -4.3538 1.8042 8.4457 24.0762 1.2475 4.9125 -23.3928 0.1251 -2.2802 -6.2806 0.0000 0.0000 0.0000 21.1574 14.4821 -6.0514 -3.5392 -11.5205 34.0562 -1.2668 1.4991 -20.8394 -0.0001 0.0782 -0.2148 3.7715 -1.2562 -1.6296 1.5935 -2.0311 3.9591 -0.5847 -0.9490 4.9421 -2.9471 -4.8920 -7.0690 4.6078 -8.4918 22.3025 1.1717 -4.2215 8.4029 0.0000 -0.0000 0.0000 -88.9046 3.0183 16.2365 17.3239 -27.2828 -4.2347 -0.0000 0.0000 -19.6099 14.5268 12.0392 3.0936 -7.1250 0.0000 -0.0000 -11.3717 42.1248 0.8183 0.0000 -0.0000 0.0000 62.5288 8.0000 53.2626 -85.5589 59.9253 -56.1548 0.0000 -0.0000 -32.9842 -42.1187 -10.0096 8.9313 7.1250 -0.0000 -0.0000 -13.7584 -42.9384 -0.7145
-0.8068 16.3288 -22.5561 -174.4060 -40.0338 174.5250 0.0000 0.0000 0.0000 -14.5634 8.1586 -4.4042 1.8118 8.4625 24.1278 1.2613 4.9733 -23.5400 0.1188 -2.2225 -6.1209 0.0000 0.0000 0.0000 21.0292 14.6028 -6.1628 -3.5574 -11.5468 34.1471 -1.2476 1.6177 -20.6454 -0.0003 0.1039 -0.2854 3.7141 -1.2490 -1.6128 1.5373 -2.0158 3.9792 -0.6097 -0.9418 4.9536 -2.8727 -4.7750 -7.1261 4.5898 -8.3581 22.4495 1.1631 -4.1562 8.4533 -0.0000 -0.0000 0.0000 -88.8123 2.9268 16.0987 17.3799 -27.3559 -4.2604 -0.0000 0.0000 -19.8393 14.0439 12.3124 3.0533 -7.1250 0.0000 -0.0000 -11.8608 42.3521 0.7870 -0.0000 -0.0000 0.0000 62.1586 8.1933 53.8831 -87.2262 59.9709 -57.5981 0.0000 -0.0000 -33.2942 -41.9542 -10.2909 9.1235 7.1250 -0.0000 -0.0000 -13.6453 -43.2763 -0.5922
-0.8258 16.3265 -22.5256 -174.3680 -39.6834 174.5000 0.0000 0.0000 0.0000 -14.6434 8.3421 -4.4731 1.8212 8.4834 24.1922 1.2769 5.0222 -23.6940 0.1115 -2.1530 -5.9288 0.0000 0.0000 0.0000 20.9391 14.7436 -6.2796 -3.5754 -11.5729 34.2374 -1.2283 1.7363 -20.4511 -0.0003 0.1070 -0.2941 3.6757 -1.2357 -1.5963 1.4932 -1.9941 3.9977 -0.6325 -0.9311 4.9637 -2.7977 -4.6526 -7.1740 4.5726 -8.2171 22.5909 1.1557 -4.0876 8.5001 0.0000 -0.0000 0.0000 -88.7236 2.8457 15.9959 17.4245 -27.4139 -4.2809 -0.0000 0.0000 -20.0040 13.7251 12.4643 3.0175 -7.1250 0.0000 -0.0000 -12.1782 42.4726 0.7719 0.0000 -0.0000 0.0000 61.7957 8.3931 54.4829 -88.8977 59.9954 -59.0454 0.0000 -0.0000 -33.5721 -41.5661 -10.5393 9.2132 7.1250 -0.0000 -0.0000 -13.3146 -43.5377 -0.4897
-0.8441 16.3240 -22.4950 -174.3170 -39.3292 174.4690 0.0000 0.0000 0.0000 -14.7097 8.5255 -4.5551 1.8320 8.5069 24.2647 1.2917 5.0756 -23.8436 0.1053 -2.0924 -5.7610 0.0000 0.0000 0.0000 20.8630 14.8818 -6.4086 -3.5943 -11.6001 34.3315 -1.2090 1.8542 -20.2554 -0.0002 0.0940 -0.2583 3.6453 -1.2193 -1.5768 1.4542 -1.9688 4.0148 -0.6541 -0.9187 4.9709 -2.7180 -4.5295 -7.2201 4.5505 -8.0747 22.7317 1.1462 -4.0186 8.5461 0.0000 -0.0000 0.0000 -88.6392 2.7735 15.9219 17.4594 -27.4594 -4.2970 -0.0000 0.0000 -20.1104 13.5182 12.5407 2.9883 -7.1250 0.0000 -0.0000 -12.3790 42.5284 0.7677 0.0000 -0.0000 0.0000 61.4390 8.5908 55.0610 -90.5800 59.9987 -60.5023 0.0000 -0.0000 -33.8182 -41.1620 -10.7572 9.2678 7.1250 -0.0000 -0.0000 -12.9615 -43.7557 -0.4052
